<svg width="998" height="188" viewBox="0 0 998 188" fill="none" xmlns="http://www.w3.org/2000/svg">
<g clip-path="url(#clip0)">
<path d="M291.723 62.6039H311.49C311.103 43.4725 294.769 29.9258 270.628 29.9258C246.819 29.9258 228.935 43.3067 228.99 63.3227C228.99 79.5788 240.562 88.9232 259.222 93.7337L272.123 97.0513C284.359 100.148 292.443 103.963 292.499 112.754C292.443 122.431 283.252 128.9 269.852 128.9C257.007 128.9 247.04 123.15 246.21 111.262H226C226.831 133.766 243.607 146.428 270.019 146.428C297.205 146.428 312.985 132.881 313.041 112.92C312.985 93.2914 296.762 84.3339 279.708 80.2976L269.077 77.6435C259.775 75.4318 249.698 71.506 249.809 62.0509C249.864 53.5358 257.505 47.2877 270.351 47.2877C282.587 47.2877 290.671 52.9829 291.723 62.6039Z" fill="black"/>
<path d="M330.468 144.714H350.512V59.7839H330.468V144.714ZM340.545 47.7301C346.913 47.7301 352.117 42.8643 352.117 36.8927C352.117 30.8658 346.913 26 340.545 26C334.122 26 328.918 30.8658 328.918 36.8927C328.918 42.8643 334.122 47.7301 340.545 47.7301Z" fill="black"/>
<path d="M391.167 94.9502C391.167 82.6752 398.586 75.5977 409.162 75.5977C419.516 75.5977 425.717 82.3987 425.717 93.7337V144.714H445.761V90.6373C445.816 70.2896 434.188 58.6781 416.636 58.6781C403.901 58.6781 395.153 64.7603 391.277 74.2153H390.281V59.7839H371.123V144.714H391.167V94.9502Z" fill="black"/>
<path d="M503.123 178C526.101 178 543.044 167.494 543.044 146.096V59.7839H523.278V73.8283H522.17C519.125 67.6908 512.758 58.6781 497.752 58.6781C478.096 58.6781 462.648 74.0495 462.648 101.972C462.648 129.674 478.096 143.497 497.697 143.497C512.259 143.497 519.07 135.701 522.17 129.453H523.167V145.543C523.167 157.708 514.862 162.85 503.455 162.85C491.385 162.85 486.07 157.155 483.633 152.51L465.583 156.878C469.237 168.434 481.474 178 503.123 178ZM503.289 127.794C490.056 127.794 483.08 117.51 483.08 101.862C483.08 86.4351 489.945 75.1 503.289 75.1C516.19 75.1 523.278 85.7715 523.278 101.862C523.278 118.063 516.08 127.794 503.289 127.794Z" fill="black"/>
<path d="M583.63 31.474H563.587V144.714H583.63V31.474Z" fill="black"/>
<path d="M641.892 146.373C661.715 146.373 675.336 136.696 678.879 121.933L660.164 119.832C657.451 127.02 650.807 130.78 642.169 130.78C629.213 130.78 620.631 122.265 620.465 107.723H679.71V101.585C679.71 71.7825 661.77 58.6781 640.84 58.6781C616.478 58.6781 600.587 76.5377 600.587 102.746C600.587 129.398 616.257 146.373 641.892 146.373ZM620.52 94.2314C621.129 83.394 629.158 74.2706 641.117 74.2706C652.634 74.2706 660.386 82.6752 660.497 94.2314H620.52Z" fill="black"/>
<path d="M697.552 144.714H768.038V127.518H718.094V31.474H697.552V144.714Z" fill="black"/>
<path d="M784.981 144.714H805.024V59.7839H784.981V144.714ZM795.058 47.7301C801.425 47.7301 806.63 42.8643 806.63 36.8927C806.63 30.8658 801.425 26 795.058 26C788.635 26 783.43 30.8658 783.43 36.8927C783.43 42.8643 788.635 47.7301 795.058 47.7301Z" fill="black"/>
<path d="M845.679 94.9502C845.679 82.6752 853.099 75.5977 863.674 75.5977C874.028 75.5977 880.23 82.3987 880.23 93.7337V144.714H900.273V90.6373C900.329 70.2896 888.701 58.6781 871.149 58.6781C858.414 58.6781 849.666 64.7603 845.79 74.2153H844.793V59.7839H825.635V144.714H845.679V94.9502Z" fill="black"/>
<path d="M920.649 144.714H940.693V116.183L948.002 108.386L974.025 144.714H998L963.117 96.4431L996.062 59.7839H972.641L942.077 93.8996H940.693V31.474H920.649V144.714Z" fill="black"/>
<path fill-rule="evenodd" clip-rule="evenodd" d="M70.6202 48.9068C62.0109 43.9362 51.0023 46.886 46.0317 55.4953L3.805 128.634C-1.16557 137.243 1.78418 148.252 10.3934 153.223L64.1113 184.237C72.7206 189.207 83.7292 186.257 88.6998 177.648L130.927 104.509C135.897 95.9 132.947 84.8914 124.338 79.9208L70.6202 48.9068ZM71.3198 77.4076C66.0586 74.37 59.3311 76.1727 56.2935 81.4339L31.3056 124.714C28.268 129.975 30.0706 136.703 35.3318 139.741L63.9119 156.241C69.1731 159.279 75.9006 157.476 78.9382 152.215L103.926 108.935C106.964 103.673 105.161 96.9459 99.8998 93.9083L71.3198 77.4076Z" fill="#00D2D3"/>
<path fill-rule="evenodd" clip-rule="evenodd" d="M130.047 2.16894C121.438 -2.80162 110.429 0.14814 105.459 8.75741L63.232 81.8963C58.2614 90.5055 61.2112 101.514 69.8204 106.485L123.538 137.499C132.148 142.469 143.156 139.52 148.127 130.91L190.354 57.7714C195.324 49.1621 192.374 38.1535 183.765 33.183L130.047 2.16894ZM130.321 30.4064C125.06 27.3689 118.333 29.1715 115.295 34.4327L90.3072 77.7131C87.2696 82.9743 89.0722 89.7018 94.3334 92.7394L122.913 109.24C128.175 112.278 134.902 110.475 137.94 105.214L162.928 61.9334C165.965 56.6722 164.163 49.9447 158.901 46.9071L130.321 30.4064Z" fill="#5F27CD"/>
<mask id="mask0" mask-type="alpha" maskUnits="userSpaceOnUse" x="92" y="76" width="76" height="95">
<rect x="92.8074" y="76.9078" width="75.0019" height="94.0024" fill="#C4C4C4"/>
</mask>
<g mask="url(#mask0)">
<path fill-rule="evenodd" clip-rule="evenodd" d="M70.6202 48.9068C62.0109 43.9362 51.0023 46.886 46.0317 55.4953L3.805 128.634C-1.16557 137.243 1.78418 148.252 10.3934 153.223L64.1113 184.237C72.7206 189.207 83.7292 186.257 88.6998 177.648L130.927 104.509C135.897 95.9 132.947 84.8914 124.338 79.9208L70.6202 48.9068ZM71.3198 77.4076C66.0585 74.37 59.3311 76.1727 56.2935 81.4339L31.3056 124.714C28.268 129.975 30.0706 136.703 35.3318 139.741L63.9119 156.241C69.1731 159.279 75.9006 157.476 78.9382 152.215L103.926 108.935C106.964 103.673 105.161 96.9459 99.8998 93.9083L71.3198 77.4076Z" fill="#00D2D3"/>
</g>
</g>
<defs>
<clipPath id="clip0">
<rect width="998" height="188" fill="white"/>
</clipPath>
</defs>
</svg>
